<svg xmlns="http://www.w3.org/2000/svg" width="720" height="440" viewBox="0 0 720 440" font-family="ui-sans-serif,system-ui,Arial">
<rect width="720" height="440" fill="white"/>
<text x="360.0" y="26" text-anchor="middle" font-size="17" font-weight="700" fill="#111">Paid-LP break-even: income vs adverse selection over holding time</text>
<line x1="70.0" y1="48" x2="70.0" y2="384" stroke="#eee"/>
<text x="70.0" y="402" text-anchor="middle" font-size="11" fill="#555">0</text>
<line x1="70" y1="48.0" x2="696" y2="48.0" stroke="#eee"/>
<text x="62" y="52.0" text-anchor="end" font-size="11" fill="#555">45</text>
<line x1="195.2" y1="48" x2="195.2" y2="384" stroke="#eee"/>
<text x="195.2" y="402" text-anchor="middle" font-size="11" fill="#555">40k</text>
<line x1="70" y1="115.2" x2="696" y2="115.2" stroke="#eee"/>
<text x="62" y="119.2" text-anchor="end" font-size="11" fill="#555">36</text>
<line x1="320.4" y1="48" x2="320.4" y2="384" stroke="#eee"/>
<text x="320.4" y="402" text-anchor="middle" font-size="11" fill="#555">80k</text>
<line x1="70" y1="182.4" x2="696" y2="182.4" stroke="#eee"/>
<text x="62" y="186.4" text-anchor="end" font-size="11" fill="#555">27</text>
<line x1="445.6" y1="48" x2="445.6" y2="384" stroke="#eee"/>
<text x="445.6" y="402" text-anchor="middle" font-size="11" fill="#555">120k</text>
<line x1="70" y1="249.6" x2="696" y2="249.6" stroke="#eee"/>
<text x="62" y="253.6" text-anchor="end" font-size="11" fill="#555">18</text>
<line x1="570.8" y1="48" x2="570.8" y2="384" stroke="#eee"/>
<text x="570.8" y="402" text-anchor="middle" font-size="11" fill="#555">160k</text>
<line x1="70" y1="316.8" x2="696" y2="316.8" stroke="#eee"/>
<text x="62" y="320.8" text-anchor="end" font-size="11" fill="#555">9</text>
<line x1="696.0" y1="48" x2="696.0" y2="384" stroke="#eee"/>
<text x="696.0" y="402" text-anchor="middle" font-size="11" fill="#555">200k</text>
<line x1="70" y1="384.0" x2="696" y2="384.0" stroke="#eee"/>
<text x="62" y="388.0" text-anchor="end" font-size="11" fill="#555">0</text>
<line x1="70" y1="384" x2="696" y2="384" stroke="#333"/>
<line x1="70" y1="48" x2="70" y2="384" stroke="#333"/>
<text x="383.0" y="426" text-anchor="middle" font-size="13" fill="#222">holding time τ (slots)</text>
<text x="18" y="216.0" text-anchor="middle" font-size="13" fill="#222" transform="rotate(-90 18 216.0)">% of notional</text>
<polyline points="70.0,380.3 76.3,377.4 82.5,374.4 88.8,371.5 95.0,368.6 101.3,365.7 107.6,362.8 113.8,359.9 120.1,357.0 126.3,354.1 132.6,351.1 138.9,348.2 145.1,345.3 151.4,342.4 157.6,339.5 163.9,336.6 170.2,333.7 176.4,330.8 182.7,327.9 188.9,324.9 195.2,322.0 201.5,319.1 207.7,316.2 214.0,313.3 220.2,310.4 226.5,307.5 232.8,304.6 239.0,301.6 245.3,298.7 251.5,295.8 257.8,292.9 264.1,290.0 270.3,287.1 276.6,284.2 282.8,281.3 289.1,278.3 295.4,275.4 301.6,272.5 307.9,269.6 314.1,266.7 320.4,263.8 326.7,260.9 332.9,258.0 339.2,255.1 345.4,252.1 351.7,249.2 358.0,246.3 364.2,243.4 370.5,240.5 376.7,237.6 383.0,234.7 389.3,231.8 395.5,228.8 401.8,225.9 408.0,223.0 414.3,220.1 420.6,217.2 426.8,214.3 433.1,211.4 439.3,208.5 445.6,205.5 451.9,202.6 458.1,199.7 464.4,196.8 470.6,193.9 476.9,191.0 483.2,188.1 489.4,185.2 495.7,182.3 501.9,179.3 508.2,176.4 514.5,173.5 520.7,170.6 527.0,167.7 533.2,164.8 539.5,161.9 545.8,159.0 552.0,156.0 558.3,153.1 564.5,150.2 570.8,147.3 577.1,144.4 583.3,141.5 589.6,138.6 595.8,135.7 602.1,132.7 608.4,129.8 614.6,126.9 620.9,124.0 627.1,121.1 633.4,118.2 639.7,115.3 645.9,112.4 652.2,109.5 658.4,106.5 664.7,103.6 671.0,100.7 677.2,97.8 683.5,94.9 689.7,92.0 696.0,89.1" fill="none" stroke="#2563eb" stroke-width="2.5"/>
<rect x="84" y="55" width="14" height="4" fill="#2563eb"/>
<text x="104" y="60" font-size="12" fill="#222">income (fees+spread+funding·τ)</text>
<polyline points="70.0,383.5 76.3,363.0 82.5,353.9 88.8,347.2 95.0,341.5 101.3,336.2 107.6,331.9 113.8,327.6 120.1,323.8 126.3,320.0 132.6,316.6 138.9,313.3 145.1,310.4 151.4,307.1 157.6,304.2 163.9,301.3 170.2,298.9 176.4,296.1 182.7,293.7 188.9,291.3 195.2,288.4 201.5,286.5 207.7,284.1 214.0,281.7 220.2,279.3 226.5,277.4 232.8,275.0 239.0,273.1 245.3,271.2 251.5,269.3 257.8,267.4 264.1,265.5 270.3,263.6 276.6,261.7 282.8,259.8 289.1,257.8 295.4,255.9 301.6,254.0 307.9,252.6 314.1,250.7 320.4,249.2 326.7,247.3 332.9,245.9 339.2,244.0 345.4,242.6 351.7,240.6 358.0,239.2 364.2,237.8 370.5,236.3 376.7,234.4 383.0,233.0 389.3,231.6 395.5,230.1 401.8,228.7 408.0,227.3 414.3,225.8 420.6,224.4 426.8,223.0 433.1,221.5 439.3,220.1 445.6,218.7 451.9,217.2 458.1,215.8 464.4,214.8 470.6,213.4 476.9,212.0 483.2,210.5 489.4,209.1 495.7,208.1 501.9,206.7 508.2,205.3 514.5,204.3 520.7,202.9 527.0,201.5 533.2,200.5 539.5,199.1 545.8,198.1 552.0,196.7 558.3,195.7 564.5,194.3 570.8,192.9 577.1,191.9 583.3,190.9 589.6,189.5 595.8,188.6 602.1,187.1 608.4,186.2 614.6,184.7 620.9,183.8 627.1,182.8 633.4,181.4 639.7,180.4 645.9,179.5 652.2,178.0 658.4,177.1 664.7,176.1 671.0,174.7 677.2,173.7 683.5,172.8 689.7,171.8 696.0,170.4" fill="none" stroke="#dc2626" stroke-width="2.5"/>
<rect x="84" y="73" width="14" height="4" fill="#dc2626"/>
<text x="104" y="78" font-size="12" fill="#222">adverse selection (σ·√τ·0.8)</text>
<text x="696" y="60" text-anchor="end" font-size="11" fill="#888">short holds bleed (adverse > income); sustained holds earn — illustrative params</text>
</svg>