<svg xmlns="http://www.w3.org/2000/svg" width="720" height="440" viewBox="0 0 720 440" font-family="ui-sans-serif,system-ui,Arial">
<rect width="720" height="440" fill="white"/>
<text x="360.0" y="26" text-anchor="middle" font-size="17" font-weight="700" fill="#111">Payout vs demand on the opposing pool (the credit_rate cap)</text>
<line x1="70.0" y1="48" x2="70.0" y2="384" stroke="#eee"/>
<text x="70.0" y="402" text-anchor="middle" font-size="11" fill="#555">0</text>
<line x1="70" y1="48.0" x2="696" y2="48.0" stroke="#eee"/>
<text x="62" y="52.0" text-anchor="end" font-size="11" fill="#555">105</text>
<line x1="195.2" y1="48" x2="195.2" y2="384" stroke="#eee"/>
<text x="195.2" y="402" text-anchor="middle" font-size="11" fill="#555">0.60</text>
<line x1="70" y1="115.2" x2="696" y2="115.2" stroke="#eee"/>
<text x="62" y="119.2" text-anchor="end" font-size="11" fill="#555">84</text>
<line x1="320.4" y1="48" x2="320.4" y2="384" stroke="#eee"/>
<text x="320.4" y="402" text-anchor="middle" font-size="11" fill="#555">1</text>
<line x1="70" y1="182.4" x2="696" y2="182.4" stroke="#eee"/>
<text x="62" y="186.4" text-anchor="end" font-size="11" fill="#555">63</text>
<line x1="445.6" y1="48" x2="445.6" y2="384" stroke="#eee"/>
<text x="445.6" y="402" text-anchor="middle" font-size="11" fill="#555">2</text>
<line x1="70" y1="249.6" x2="696" y2="249.6" stroke="#eee"/>
<text x="62" y="253.6" text-anchor="end" font-size="11" fill="#555">42</text>
<line x1="570.8" y1="48" x2="570.8" y2="384" stroke="#eee"/>
<text x="570.8" y="402" text-anchor="middle" font-size="11" fill="#555">2</text>
<line x1="70" y1="316.8" x2="696" y2="316.8" stroke="#eee"/>
<text x="62" y="320.8" text-anchor="end" font-size="11" fill="#555">21</text>
<line x1="696.0" y1="48" x2="696.0" y2="384" stroke="#eee"/>
<text x="696.0" y="402" text-anchor="middle" font-size="11" fill="#555">3</text>
<line x1="70" y1="384.0" x2="696" y2="384.0" stroke="#eee"/>
<text x="62" y="388.0" text-anchor="end" font-size="11" fill="#555">0</text>
<line x1="70" y1="384" x2="696" y2="384" stroke="#333"/>
<line x1="70" y1="48" x2="70" y2="384" stroke="#333"/>
<text x="383.0" y="426" text-anchor="middle" font-size="13" fill="#222">winning claim ÷ opposing pool</text>
<text x="18" y="216.0" text-anchor="middle" font-size="13" fill="#222" transform="rotate(-90 18 216.0)">% of winnings actually paid</text>
<line x1="70" y1="64.0" x2="696" y2="64.0" stroke="#16a34a" stroke-dasharray="5 4" stroke-width="1.5"/>
<text x="692" y="59.0" text-anchor="end" font-size="11" fill="#16a34a">full payout</text>
<polyline points="70.0,64.0 72.1,64.0 74.2,64.0 76.3,64.0 78.3,64.0 80.4,64.0 82.5,64.0 84.6,64.0 86.7,64.0 88.8,64.0 90.9,64.0 93.0,64.0 95.0,64.0 97.1,64.0 99.2,64.0 101.3,64.0 103.4,64.0 105.5,64.0 107.6,64.0 109.6,64.0 111.7,64.0 113.8,64.0 115.9,64.0 118.0,64.0 120.1,64.0 122.2,64.0 124.3,64.0 126.3,64.0 128.4,64.0 130.5,64.0 132.6,64.0 134.7,64.0 136.8,64.0 138.9,64.0 140.9,64.0 143.0,64.0 145.1,64.0 147.2,64.0 149.3,64.0 151.4,64.0 153.5,64.0 155.6,64.0 157.6,64.0 159.7,64.0 161.8,64.0 163.9,64.0 166.0,64.0 168.1,64.0 170.2,64.0 172.2,64.0 174.3,64.0 176.4,64.0 178.5,64.0 180.6,64.0 182.7,64.0 184.8,64.0 186.9,64.0 188.9,64.0 191.0,64.0 193.1,64.0 195.2,64.0 197.3,64.0 199.4,64.0 201.5,64.0 203.5,64.0 205.6,64.0 207.7,64.0 209.8,64.0 211.9,64.0 214.0,64.0 216.1,64.0 218.2,64.0 220.2,64.0 222.3,64.0 224.4,64.0 226.5,64.0 228.6,64.0 230.7,64.0 232.8,64.0 234.8,64.0 236.9,64.0 239.0,64.0 241.1,64.0 243.2,64.0 245.3,64.0 247.4,64.0 249.5,64.0 251.5,64.0 253.6,64.0 255.7,64.0 257.8,64.0 259.9,64.0 262.0,64.0 264.1,64.0 266.1,64.0 268.2,64.0 270.3,64.0 272.4,64.0 274.5,64.0 276.6,64.0 278.7,64.0 280.8,67.2 282.8,70.3 284.9,73.3 287.0,76.3 289.1,79.2 291.2,82.1 293.3,84.9 295.4,87.7 297.4,90.4 299.5,93.1 301.6,95.7 303.7,98.3 305.8,100.8 307.9,103.3 310.0,105.7 312.1,108.1 314.1,110.5 316.2,112.8 318.3,115.1 320.4,117.3 322.5,119.5 324.6,121.7 326.7,123.8 328.7,125.9 330.8,128.0 332.9,130.0 335.0,132.0 337.1,134.0 339.2,135.9 341.3,137.8 343.4,139.7 345.4,141.6 347.5,143.4 349.6,145.2 351.7,147.0 353.8,148.7 355.9,150.4 358.0,152.1 360.0,153.8 362.1,155.4 364.2,157.0 366.3,158.6 368.4,160.2 370.5,161.8 372.6,163.3 374.7,164.8 376.7,166.3 378.8,167.8 380.9,169.2 383.0,170.7 385.1,172.1 387.2,173.5 389.3,174.8 391.3,176.2 393.4,177.5 395.5,178.9 397.6,180.2 399.7,181.5 401.8,182.7 403.9,184.0 406.0,185.2 408.0,186.5 410.1,187.7 412.2,188.9 414.3,190.1 416.4,191.2 418.5,192.4 420.6,193.5 422.6,194.7 424.7,195.8 426.8,196.9 428.9,198.0 431.0,199.0 433.1,200.1 435.2,201.1 437.3,202.2 439.3,203.2 441.4,204.2 443.5,205.2 445.6,206.2 447.7,207.2 449.8,208.2 451.9,209.1 453.9,210.1 456.0,211.0 458.1,212.0 460.2,212.9 462.3,213.8 464.4,214.7 466.5,215.6 468.6,216.5 470.6,217.3 472.7,218.2 474.8,219.1 476.9,219.9 479.0,220.7 481.1,221.6 483.2,222.4 485.2,223.2 487.3,224.0 489.4,224.8 491.5,225.6 493.6,226.4 495.7,227.1 497.8,227.9 499.9,228.7 501.9,229.4 504.0,230.2 506.1,230.9 508.2,231.6 510.3,232.3 512.4,233.1 514.5,233.8 516.5,234.5 518.6,235.2 520.7,235.9 522.8,236.5 524.9,237.2 527.0,237.9 529.1,238.5 531.2,239.2 533.2,239.9 535.3,240.5 537.4,241.1 539.5,241.8 541.6,242.4 543.7,243.0 545.8,243.6 547.8,244.3 549.9,244.9 552.0,245.5 554.1,246.1 556.2,246.7 558.3,247.2 560.4,247.8 562.5,248.4 564.5,249.0 566.6,249.5 568.7,250.1 570.8,250.7 572.9,251.2 575.0,251.8 577.1,252.3 579.1,252.9 581.2,253.4 583.3,253.9 585.4,254.4 587.5,255.0 589.6,255.5 591.7,256.0 593.8,256.5 595.8,257.0 597.9,257.5 600.0,258.0 602.1,258.5 604.2,259.0 606.3,259.5 608.4,260.0 610.4,260.4 612.5,260.9 614.6,261.4 616.7,261.9 618.8,262.3 620.9,262.8 623.0,263.2 625.1,263.7 627.1,264.2 629.2,264.6 631.3,265.0 633.4,265.5 635.5,265.9 637.6,266.4 639.7,266.8 641.7,267.2 643.8,267.6 645.9,268.1 648.0,268.5 650.1,268.9 652.2,269.3 654.3,269.7 656.4,270.1 658.4,270.5 660.5,270.9 662.6,271.3 664.7,271.7 666.8,272.1 668.9,272.5 671.0,272.9 673.0,273.3 675.1,273.7 677.2,274.0 679.3,274.4 681.4,274.8 683.5,275.2 685.6,275.5 687.7,275.9 689.7,276.3 691.8,276.6 693.9,277.0 696.0,277.3" fill="none" stroke="#2563eb" stroke-width="2.5"/>
<rect x="84" y="55" width="14" height="4" fill="#2563eb"/>
<text x="104" y="60" font-size="12" fill="#222">credit_rate payout</text>
<text x="696" y="60" text-anchor="end" font-size="11" fill="#888">paid 100% until the pool is exhausted, then a transparent haircut</text>
</svg>