<svg xmlns="http://www.w3.org/2000/svg" width="720" height="440" viewBox="0 0 720 440" font-family="ui-sans-serif,system-ui,Arial">
<rect width="720" height="440" fill="white"/>
<text x="360.0" y="26" text-anchor="middle" font-size="17" font-weight="700" fill="#111">Leverage ratchet: max leverage shrinks as the one-sided book fills</text>
<line x1="70.0" y1="48" x2="70.0" y2="384" stroke="#eee"/>
<text x="70.0" y="402" text-anchor="middle" font-size="11" fill="#555">0</text>
<line x1="70" y1="48.0" x2="696" y2="48.0" stroke="#eee"/>
<text x="62" y="52.0" text-anchor="end" font-size="11" fill="#555">11</text>
<line x1="195.2" y1="48" x2="195.2" y2="384" stroke="#eee"/>
<text x="195.2" y="402" text-anchor="middle" font-size="11" fill="#555">0.24</text>
<line x1="70" y1="115.2" x2="696" y2="115.2" stroke="#eee"/>
<text x="62" y="119.2" text-anchor="end" font-size="11" fill="#555">9</text>
<line x1="320.4" y1="48" x2="320.4" y2="384" stroke="#eee"/>
<text x="320.4" y="402" text-anchor="middle" font-size="11" fill="#555">0.48</text>
<line x1="70" y1="182.4" x2="696" y2="182.4" stroke="#eee"/>
<text x="62" y="186.4" text-anchor="end" font-size="11" fill="#555">7</text>
<line x1="445.6" y1="48" x2="445.6" y2="384" stroke="#eee"/>
<text x="445.6" y="402" text-anchor="middle" font-size="11" fill="#555">0.72</text>
<line x1="70" y1="249.6" x2="696" y2="249.6" stroke="#eee"/>
<text x="62" y="253.6" text-anchor="end" font-size="11" fill="#555">4</text>
<line x1="570.8" y1="48" x2="570.8" y2="384" stroke="#eee"/>
<text x="570.8" y="402" text-anchor="middle" font-size="11" fill="#555">0.96</text>
<line x1="70" y1="316.8" x2="696" y2="316.8" stroke="#eee"/>
<text x="62" y="320.8" text-anchor="end" font-size="11" fill="#555">2</text>
<line x1="696.0" y1="48" x2="696.0" y2="384" stroke="#eee"/>
<text x="696.0" y="402" text-anchor="middle" font-size="11" fill="#555">1</text>
<line x1="70" y1="384.0" x2="696" y2="384.0" stroke="#eee"/>
<text x="62" y="388.0" text-anchor="end" font-size="11" fill="#555">0</text>
<line x1="70" y1="384" x2="696" y2="384" stroke="#333"/>
<line x1="70" y1="48" x2="70" y2="384" stroke="#333"/>
<text x="383.0" y="426" text-anchor="middle" font-size="13" fill="#222">crowded OI ÷ cap</text>
<text x="18" y="216.0" text-anchor="middle" font-size="13" fill="#222" transform="rotate(-90 18 216.0)">max leverage (x)</text>
<line x1="70" y1="78.5" x2="696" y2="78.5" stroke="#16a34a" stroke-dasharray="5 4" stroke-width="1.5"/>
<text x="692" y="73.5" text-anchor="end" font-size="11" fill="#16a34a">10x (empty book)</text>
<line x1="70" y1="353.5" x2="696" y2="353.5" stroke="#dc2626" stroke-dasharray="5 4" stroke-width="1.5"/>
<text x="692" y="348.5" text-anchor="end" font-size="11" fill="#dc2626">1x (at cap)</text>
<polyline points="70.0,78.5 75.2,78.5 80.4,78.5 85.7,78.5 90.9,78.5 96.1,78.5 101.3,78.5 106.5,78.5 111.7,78.5 116.9,78.5 122.2,78.5 127.4,106.3 132.6,129.5 137.8,149.0 143.0,165.8 148.2,180.4 153.5,193.1 158.7,204.3 163.9,214.3 169.1,223.2 174.3,231.3 179.6,238.5 184.8,245.2 190.0,251.2 195.2,256.7 200.4,261.8 205.6,266.5 210.9,270.9 216.1,274.9 221.3,278.7 226.5,282.2 231.7,285.5 236.9,288.5 242.2,291.4 247.4,294.2 252.6,296.7 257.8,299.2 263.0,301.4 268.2,303.6 273.5,305.7 278.7,307.6 283.9,309.5 289.1,311.3 294.3,313.0 299.5,314.6 304.8,316.1 310.0,317.6 315.2,319.0 320.4,320.4 325.6,321.7 330.8,322.9 336.1,324.1 341.3,325.3 346.5,326.4 351.7,327.4 356.9,328.5 362.1,329.5 367.3,330.4 372.6,331.3 377.8,332.2 383.0,333.1 388.2,333.9 393.4,334.7 398.7,335.5 403.9,336.3 409.1,337.0 414.3,337.7 419.5,338.4 424.7,339.1 429.9,339.7 435.2,340.4 440.4,341.0 445.6,341.6 450.8,342.2 456.0,342.7 461.2,343.3 466.5,343.8 471.7,344.3 476.9,344.8 482.1,345.3 487.3,345.8 492.6,346.3 497.8,346.7 503.0,347.2 508.2,347.6 513.4,348.1 518.6,348.5 523.8,348.9 529.1,349.3 534.3,349.7 539.5,350.1 544.7,350.4 549.9,350.8 555.2,351.2 560.4,351.5 565.6,351.8 570.8,352.2 576.0,352.5 581.2,352.8 586.5,353.1 591.7,353.5 596.9,353.5 602.1,353.5 607.3,353.5 612.5,353.5 617.8,353.5 623.0,353.5 628.2,353.5 633.4,353.5 638.6,353.5 643.8,353.5 649.1,353.5 654.3,353.5 659.5,353.5 664.7,353.5 669.9,353.5 675.1,353.5 680.4,353.5 685.6,353.5 690.8,353.5 696.0,353.5" fill="none" stroke="#2563eb" stroke-width="2.5"/>
<rect x="84" y="55" width="14" height="4" fill="#2563eb"/>
<text x="104" y="60" font-size="12" fill="#222">max leverage</text>
<text x="696" y="60" text-anchor="end" font-size="11" fill="#888">late lopsided entrants must post more margin -> protects the seed bound</text>
</svg>