<svg xmlns="http://www.w3.org/2000/svg" width="720" height="440" viewBox="0 0 720 440" font-family="ui-sans-serif,system-ui,Arial">
<rect width="720" height="440" fill="white"/>
<text x="360.0" y="26" text-anchor="middle" font-size="17" font-weight="700" fill="#111">Seed loss: capped (OI sized to seed) vs unguarded</text>
<line x1="70.0" y1="48" x2="70.0" y2="384" stroke="#eee"/>
<text x="70.0" y="402" text-anchor="middle" font-size="11" fill="#555">0</text>
<line x1="70" y1="48.0" x2="696" y2="48.0" stroke="#eee"/>
<text x="62" y="52.0" text-anchor="end" font-size="11" fill="#555">520</text>
<line x1="195.2" y1="48" x2="195.2" y2="384" stroke="#eee"/>
<text x="195.2" y="402" text-anchor="middle" font-size="11" fill="#555">20</text>
<line x1="70" y1="115.2" x2="696" y2="115.2" stroke="#eee"/>
<text x="62" y="119.2" text-anchor="end" font-size="11" fill="#555">416</text>
<line x1="320.4" y1="48" x2="320.4" y2="384" stroke="#eee"/>
<text x="320.4" y="402" text-anchor="middle" font-size="11" fill="#555">40</text>
<line x1="70" y1="182.4" x2="696" y2="182.4" stroke="#eee"/>
<text x="62" y="186.4" text-anchor="end" font-size="11" fill="#555">312</text>
<line x1="445.6" y1="48" x2="445.6" y2="384" stroke="#eee"/>
<text x="445.6" y="402" text-anchor="middle" font-size="11" fill="#555">60</text>
<line x1="70" y1="249.6" x2="696" y2="249.6" stroke="#eee"/>
<text x="62" y="253.6" text-anchor="end" font-size="11" fill="#555">208</text>
<line x1="570.8" y1="48" x2="570.8" y2="384" stroke="#eee"/>
<text x="570.8" y="402" text-anchor="middle" font-size="11" fill="#555">80</text>
<line x1="70" y1="316.8" x2="696" y2="316.8" stroke="#eee"/>
<text x="62" y="320.8" text-anchor="end" font-size="11" fill="#555">104</text>
<line x1="696.0" y1="48" x2="696.0" y2="384" stroke="#eee"/>
<text x="696.0" y="402" text-anchor="middle" font-size="11" fill="#555">100</text>
<line x1="70" y1="384.0" x2="696" y2="384.0" stroke="#eee"/>
<text x="62" y="388.0" text-anchor="end" font-size="11" fill="#555">0</text>
<line x1="70" y1="384" x2="696" y2="384" stroke="#333"/>
<line x1="70" y1="48" x2="70" y2="384" stroke="#333"/>
<text x="383.0" y="426" text-anchor="middle" font-size="13" fill="#222">adverse price move (%)</text>
<text x="18" y="216.0" text-anchor="middle" font-size="13" fill="#222" transform="rotate(-90 18 216.0)">seed loss (units, seed = 100)</text>
<line x1="70" y1="319.4" x2="696" y2="319.4" stroke="#16a34a" stroke-dasharray="5 4" stroke-width="1.5"/>
<text x="692" y="314.4" text-anchor="end" font-size="11" fill="#16a34a">seed = 100 (max loss)</text>
<polyline points="70.0,384.0 76.3,383.4 82.5,382.7 88.8,382.1 95.0,381.4 101.3,380.8 107.6,380.1 113.8,379.5 120.1,378.8 126.3,378.2 132.6,377.5 138.9,376.9 145.1,376.2 151.4,375.6 157.6,375.0 163.9,374.3 170.2,373.7 176.4,373.0 182.7,372.4 188.9,371.7 195.2,371.1 201.5,370.4 207.7,369.8 214.0,369.1 220.2,368.5 226.5,367.8 232.8,367.2 239.0,366.6 245.3,365.9 251.5,365.9 257.8,364.6 264.1,364.0 270.3,363.3 276.6,362.7 282.8,362.0 289.1,361.4 295.4,360.7 301.6,360.1 307.9,359.4 314.1,358.8 320.4,358.2 326.7,357.5 332.9,356.9 339.2,356.2 345.4,355.6 351.7,354.9 358.0,354.3 364.2,353.6 370.5,353.0 376.7,352.3 383.0,351.7 389.3,351.0 395.5,350.4 401.8,349.8 408.0,349.1 414.3,348.5 420.6,347.8 426.8,347.8 433.1,347.2 439.3,345.9 445.6,345.2 451.9,344.6 458.1,343.9 464.4,343.3 470.6,342.6 476.9,342.0 483.2,341.4 489.4,340.7 495.7,340.1 501.9,339.4 508.2,338.8 514.5,338.1 520.7,337.5 527.0,336.8 533.2,336.2 539.5,335.5 545.8,334.9 552.0,334.2 558.3,333.6 564.5,333.0 570.8,332.3 577.1,331.7 583.3,331.0 589.6,330.4 595.8,329.7 602.1,329.1 608.4,328.4 614.6,327.8 620.9,327.1 627.1,326.5 633.4,325.8 639.7,325.2 645.9,324.6 652.2,323.9 658.4,323.3 664.7,322.6 671.0,322.0 677.2,321.3 683.5,320.7 689.7,320.0 696.0,319.4" fill="none" stroke="#2563eb" stroke-width="2.5"/>
<rect x="84" y="55" width="14" height="4" fill="#2563eb"/>
<text x="104" y="60" font-size="12" fill="#222">OI cap sized to seed</text>
<polyline points="70.0,384.0 76.3,380.8 82.5,377.5 88.8,374.3 95.0,371.1 101.3,367.8 107.6,364.6 113.8,361.4 120.1,358.2 126.3,354.9 132.6,351.7 138.9,348.5 145.1,345.2 151.4,342.0 157.6,338.8 163.9,335.5 170.2,332.3 176.4,329.1 182.7,325.8 188.9,322.6 195.2,319.4 201.5,316.2 207.7,312.9 214.0,309.7 220.2,306.5 226.5,303.2 232.8,300.0 239.0,296.8 245.3,293.5 251.5,290.3 257.8,287.1 264.1,283.8 270.3,280.6 276.6,277.4 282.8,274.2 289.1,270.9 295.4,267.7 301.6,264.5 307.9,261.2 314.1,258.0 320.4,254.8 326.7,251.5 332.9,248.3 339.2,245.1 345.4,241.8 351.7,238.6 358.0,235.4 364.2,232.2 370.5,228.9 376.7,225.7 383.0,222.5 389.3,219.2 395.5,216.0 401.8,212.8 408.0,209.5 414.3,206.3 420.6,203.1 426.8,199.8 433.1,196.6 439.3,193.4 445.6,190.2 451.9,186.9 458.1,183.7 464.4,180.5 470.6,177.2 476.9,174.0 483.2,170.8 489.4,167.5 495.7,164.3 501.9,161.1 508.2,157.8 514.5,154.6 520.7,151.4 527.0,148.2 533.2,144.9 539.5,141.7 545.8,138.5 552.0,135.2 558.3,132.0 564.5,128.8 570.8,125.5 577.1,122.3 583.3,119.1 589.6,115.8 595.8,112.6 602.1,109.4 608.4,106.2 614.6,102.9 620.9,99.7 627.1,96.5 633.4,93.2 639.7,90.0 645.9,86.8 652.2,83.5 658.4,80.3 664.7,77.1 671.0,73.8 677.2,70.6 683.5,67.4 689.7,64.2 696.0,60.9" fill="none" stroke="#dc2626" stroke-width="2.5"/>
<rect x="84" y="73" width="14" height="4" fill="#dc2626"/>
<text x="104" y="78" font-size="12" fill="#222">unguarded (5x seed OI)</text>
<text x="696" y="60" text-anchor="end" font-size="11" fill="#888">the cap flattens loss at the seed; unguarded OI blows past it</text>
</svg>